<?xml version="1.0" encoding="UTF-8" standalone="no"?>
<!-- Created with Inkscape (http://www.inkscape.org/) -->

<svg
   xmlns:dc="http://purl.org/dc/elements/1.1/"
   xmlns:cc="http://creativecommons.org/ns#"
   xmlns:rdf="http://www.w3.org/1999/02/22-rdf-syntax-ns#"
   xmlns:svg="http://www.w3.org/2000/svg"
   xmlns="http://www.w3.org/2000/svg"
   xmlns:sodipodi="http://sodipodi.sourceforge.net/DTD/sodipodi-0.dtd"
   xmlns:inkscape="http://www.inkscape.org/namespaces/inkscape"
   width="1189mm"
   height="841mm"
   viewBox="0 0 4212.9922 2979.9212"
   id="svg2"
   version="1.1"
   inkscape:version="0.91 r13725"
   sodipodi:docname="necks.svg">
  <defs
     id="defs4" />
  <sodipodi:namedview
     id="base"
     pagecolor="#ffffff"
     bordercolor="#666666"
     borderopacity="1.0"
     inkscape:pageopacity="0.0"
     inkscape:pageshadow="2"
     inkscape:zoom="0.35"
     inkscape:cx="1064.6809"
     inkscape:cy="113.22202"
     inkscape:document-units="px"
     inkscape:current-layer="layer1"
     showgrid="false"
     inkscape:window-width="1440"
     inkscape:window-height="813"
     inkscape:window-x="0"
     inkscape:window-y="1"
     inkscape:window-maximized="1" />
  <metadata
     id="metadata7">
    <rdf:RDF>
      <cc:Work
         rdf:about="">
        <dc:format>image/svg+xml</dc:format>
        <dc:type
           rdf:resource="http://purl.org/dc/dcmitype/StillImage" />
        <dc:title></dc:title>
      </cc:Work>
    </rdf:RDF>
  </metadata>
  <g
     inkscape:label="Layer 1"
     inkscape:groupmode="layer"
     id="layer1"
     transform="translate(0,1927.5589)">
    <g
       id="g4307"
       transform="matrix(-1,0,0,1,2296.0625,0)">
      <path
         inkscape:connector-curvature="0"
         id="rect4144"
         d="m 2296.0625,840.47166 0,211.89074 L 0,1022.2432 0,870.59086 2296.0625,840.47166 Z"
         style="opacity:1;fill:#37483e;fill-opacity:1;stroke:none;stroke-width:30;stroke-miterlimit:4;stroke-dasharray:none;stroke-opacity:1" />
      <path
         id="rect4159"
         transform="translate(0,-1927.5589)"
         d="m 768.58594,2788.0684 -9.92188,0.1308 0,171.5547 9.92188,0.1309 0,-171.8164 z"
         style="opacity:1;fill:#b7c8b7;fill-opacity:1;stroke:none;stroke-width:30;stroke-miterlimit:4;stroke-dasharray:none;stroke-opacity:1"
         inkscape:connector-curvature="0" />
      <path
         id="rect4161"
         transform="translate(0,-1927.5589)"
         d="m 854.5957,2786.9395 -9.91992,0.1308 0,173.8125 9.91992,0.1309 0,-174.0742 z"
         style="opacity:1;fill:#b7c8b7;fill-opacity:1;stroke:none;stroke-width:30;stroke-miterlimit:4;stroke-dasharray:none;stroke-opacity:1"
         inkscape:connector-curvature="0" />
      <path
         id="rect4163"
         transform="translate(0,-1927.5589)"
         d="m 677.46289,2789.2637 -9.92187,0.1308 0,169.1641 9.92187,0.1309 0,-169.4258 z"
         style="opacity:1;fill:#b7c8b7;fill-opacity:1;stroke:none;stroke-width:30;stroke-miterlimit:4;stroke-dasharray:none;stroke-opacity:1"
         inkscape:connector-curvature="0" />
      <path
         id="rect4165"
         transform="translate(0,-1927.5589)"
         d="m 580.92188,2790.5293 -9.92188,0.1309 0,166.6328 9.92188,0.1308 0,-166.8945 z"
         style="opacity:1;fill:#b7c8b7;fill-opacity:1;stroke:none;stroke-width:30;stroke-miterlimit:4;stroke-dasharray:none;stroke-opacity:1"
         inkscape:connector-curvature="0" />
      <path
         id="rect4167"
         transform="translate(0,-1927.5589)"
         d="m 478.63672,2791.8711 -9.92188,0.1309 0,163.9492 9.92188,0.1308 0,-164.2109 z"
         style="opacity:1;fill:#b7c8b7;fill-opacity:1;stroke:none;stroke-width:30;stroke-miterlimit:4;stroke-dasharray:none;stroke-opacity:1"
         inkscape:connector-curvature="0" />
      <path
         id="rect4169"
         transform="translate(0,-1927.5589)"
         d="m 370.27148,2793.293 -9.91992,0.1308 0,161.1055 9.91992,0.1309 0,-161.3672 z"
         style="opacity:1;fill:#b7c8b7;fill-opacity:1;stroke:none;stroke-width:30;stroke-miterlimit:4;stroke-dasharray:none;stroke-opacity:1"
         inkscape:connector-curvature="0" />
      <path
         id="rect4171"
         transform="translate(0,-1927.5589)"
         d="m 255.46484,2794.7988 -9.91992,0.1309 0,158.0937 9.91992,0.1309 0,-158.3555 z"
         style="opacity:1;fill:#b7c8b7;fill-opacity:1;stroke:none;stroke-width:30;stroke-miterlimit:4;stroke-dasharray:none;stroke-opacity:1"
         inkscape:connector-curvature="0" />
      <path
         id="rect4173"
         transform="translate(0,-1927.5589)"
         d="m 133.82812,2796.3945 -9.92187,0.1309 0,154.9023 9.92187,0.1309 0,-155.1641 z"
         style="opacity:1;fill:#b7c8b7;fill-opacity:1;stroke:none;stroke-width:30;stroke-miterlimit:4;stroke-dasharray:none;stroke-opacity:1"
         inkscape:connector-curvature="0" />
      <path
         id="rect4175"
         transform="translate(0,-1927.5589)"
         d="m 935.77734,2785.875 -9.92187,0.1309 0,175.9414 9.92187,0.1308 0,-176.2031 z"
         style="opacity:1;fill:#b7c8b7;fill-opacity:1;stroke:none;stroke-width:30;stroke-miterlimit:4;stroke-dasharray:none;stroke-opacity:1"
         inkscape:connector-curvature="0" />
      <path
         id="rect4196"
         transform="translate(0,-1927.5589)"
         d="m 1012.4004,2784.8691 -9.9199,0.1309 0,177.9531 9.9199,0.1309 0,-178.2149 z"
         style="opacity:1;fill:#b7c8b7;fill-opacity:1;stroke:none;stroke-width:30;stroke-miterlimit:4;stroke-dasharray:none;stroke-opacity:1"
         inkscape:connector-curvature="0" />
      <path
         id="rect4198"
         transform="translate(0,-1927.5589)"
         d="m 1084.7266,2783.9219 -9.9219,0.1289 0,179.8515 9.9219,0.1289 0,-180.1093 z"
         style="opacity:1;fill:#b7c8b7;fill-opacity:1;stroke:none;stroke-width:30;stroke-miterlimit:4;stroke-dasharray:none;stroke-opacity:1"
         inkscape:connector-curvature="0" />
      <path
         id="rect4200"
         transform="translate(0,-1927.5589)"
         d="m 1152.9922,2783.0254 -9.9219,0.1308 0,181.6407 9.9219,0.1308 0,-181.9023 z"
         style="opacity:1;fill:#b7c8b7;fill-opacity:1;stroke:none;stroke-width:30;stroke-miterlimit:4;stroke-dasharray:none;stroke-opacity:1"
         inkscape:connector-curvature="0" />
      <path
         id="rect4202"
         transform="translate(0,-1927.5589)"
         d="m 1217.4277,2782.1797 -9.9218,0.1308 0,183.3321 9.9218,0.1308 0,-183.5937 z"
         style="opacity:1;fill:#b7c8b7;fill-opacity:1;stroke:none;stroke-width:30;stroke-miterlimit:4;stroke-dasharray:none;stroke-opacity:1"
         inkscape:connector-curvature="0" />
      <path
         id="rect4204"
         transform="translate(0,-1927.5589)"
         d="m 1278.2441,2781.3828 -9.9199,0.1309 0,184.9258 9.9199,0.1308 0,-185.1875 z"
         style="opacity:1;fill:#b7c8b7;fill-opacity:1;stroke:none;stroke-width:30;stroke-miterlimit:4;stroke-dasharray:none;stroke-opacity:1"
         inkscape:connector-curvature="0" />
      <path
         id="rect4206"
         transform="translate(0,-1927.5589)"
         d="m 1335.6504,2780.6289 -9.9219,0.1309 0,186.4336 9.9219,0.1308 0,-186.6953 z"
         style="opacity:1;fill:#b7c8b7;fill-opacity:1;stroke:none;stroke-width:30;stroke-miterlimit:4;stroke-dasharray:none;stroke-opacity:1"
         inkscape:connector-curvature="0" />
      <path
         id="rect4208"
         transform="translate(0,-1927.5589)"
         d="m 1389.8301,2779.9199 -9.9219,0.1289 0,187.8555 9.9219,0.1289 0,-188.1133 z"
         style="opacity:1;fill:#b7c8b7;fill-opacity:1;stroke:none;stroke-width:30;stroke-miterlimit:4;stroke-dasharray:none;stroke-opacity:1"
         inkscape:connector-curvature="0" />
      <path
         id="rect4210"
         transform="translate(0,-1927.5589)"
         d="m 1440.9707,2779.248 -9.9219,0.1309 0,189.1953 9.9219,0.1309 0,-189.4571 z"
         style="opacity:1;fill:#b7c8b7;fill-opacity:1;stroke:none;stroke-width:30;stroke-miterlimit:4;stroke-dasharray:none;stroke-opacity:1"
         inkscape:connector-curvature="0" />
      <path
         id="rect4214"
         transform="translate(0,-1927.5589)"
         d="m 1489.2422,2778.6152 -9.9219,0.1289 0,190.4649 9.9219,0.1289 0,-190.7227 z"
         style="opacity:1;fill:#b7c8b7;fill-opacity:1;stroke:none;stroke-width:30;stroke-miterlimit:4;stroke-dasharray:none;stroke-opacity:1"
         inkscape:connector-curvature="0" />
      <path
         id="rect4216"
         transform="translate(0,-1927.5589)"
         d="m 1534.8047,2778.0176 -9.9219,0.1289 0,191.6601 9.9219,0.1289 0,-191.9179 z"
         style="opacity:1;fill:#b7c8b7;fill-opacity:1;stroke:none;stroke-width:30;stroke-miterlimit:4;stroke-dasharray:none;stroke-opacity:1"
         inkscape:connector-curvature="0" />
      <path
         id="rect4218"
         transform="translate(0,-1927.5589)"
         d="m 1577.8105,2777.4531 -9.9218,0.1309 0,192.7851 9.9218,0.1309 0,-193.0469 z"
         style="opacity:1;fill:#b7c8b7;fill-opacity:1;stroke:none;stroke-width:30;stroke-miterlimit:4;stroke-dasharray:none;stroke-opacity:1"
         inkscape:connector-curvature="0" />
      <path
         id="rect4220"
         transform="translate(0,-1927.5589)"
         d="m 1618.3984,2776.9199 -9.9218,0.1309 0,193.8515 9.9218,0.1309 0,-194.1133 z"
         style="opacity:1;fill:#b7c8b7;fill-opacity:1;stroke:none;stroke-width:30;stroke-miterlimit:4;stroke-dasharray:none;stroke-opacity:1"
         inkscape:connector-curvature="0" />
      <path
         id="rect4222"
         transform="translate(0,-1927.5589)"
         d="m 1656.7129,2776.418 -9.9219,0.1308 0,194.8555 9.9219,0.1309 0,-195.1172 z"
         style="opacity:1;fill:#b7c8b7;fill-opacity:1;stroke:none;stroke-width:30;stroke-miterlimit:4;stroke-dasharray:none;stroke-opacity:1"
         inkscape:connector-curvature="0" />
      <path
         id="rect4224"
         transform="translate(0,-1927.5589)"
         d="m 1692.875,2775.9434 -9.9219,0.1308 0,195.8047 9.9219,0.1309 0,-196.0664 z"
         style="opacity:1;fill:#b7c8b7;fill-opacity:1;stroke:none;stroke-width:30;stroke-miterlimit:4;stroke-dasharray:none;stroke-opacity:1"
         inkscape:connector-curvature="0" />
      <path
         id="rect4226"
         transform="translate(0,-1927.5589)"
         d="m 1727.0078,2775.4961 -9.9219,0.1309 0,196.6992 9.9219,0.1308 0,-196.9609 z"
         style="opacity:1;fill:#b7c8b7;fill-opacity:1;stroke:none;stroke-width:30;stroke-miterlimit:4;stroke-dasharray:none;stroke-opacity:1"
         inkscape:connector-curvature="0" />
    </g>
  </g>
</svg>
